<svg xmlns="http://www.w3.org/2000/svg" xmlns:xlink="http://www.w3.org/1999/xlink" width="18pt" height="18pt" viewBox="0 0 18 18" version="1.1">
<g >
<path style=" stroke:none;fill-rule:nonzero;fill:rgb(0%,0%,0%);fill-opacity:1;" d="M 16.988281 7.589844 L 17.015625 7.59375 L 4.972656 7.59375 L 8.757812 3.800781 C 8.945312 3.613281 9.046875 3.363281 9.046875 3.101562 C 9.046875 2.835938 8.945312 2.585938 8.757812 2.402344 L 8.167969 1.8125 C 7.984375 1.628906 7.738281 1.523438 7.472656 1.523438 C 7.210938 1.523438 6.964844 1.625 6.777344 1.8125 L 0.285156 8.300781 C 0.101562 8.488281 0 8.734375 0 9 C 0 9.265625 0.101562 9.511719 0.285156 9.699219 L 6.777344 16.1875 C 6.964844 16.375 7.210938 16.476562 7.472656 16.476562 C 7.738281 16.476562 7.984375 16.375 8.167969 16.1875 L 8.757812 15.597656 C 8.945312 15.414062 9.046875 15.167969 9.046875 14.902344 C 9.046875 14.640625 8.945312 14.40625 8.757812 14.222656 L 4.929688 10.40625 L 17 10.40625 C 17.542969 10.40625 18 9.9375 18 9.394531 L 18 8.5625 C 18 8.019531 17.53125 7.589844 16.988281 7.589844 Z M 16.988281 7.589844 "/>
</g>
</svg>
