<svg width="273" height="57" viewBox="0 0 273 57" fill="none" xmlns="http://www.w3.org/2000/svg">
<path d="M53.2641 47.7964H54.1842V48.6128C59.1936 48.7148 59.0914 55.5519 54.1842 55.654V56.4704H53.2641V55.654C48.2546 55.5519 48.2546 48.7148 53.2641 48.6128V47.7964ZM53.2641 54.8376V49.4291C51.4238 49.4291 50.5037 50.7557 50.5037 52.0824C50.5037 53.409 51.4238 54.8376 53.2641 54.8376ZM54.1842 54.8376C57.8646 54.7356 57.8646 49.5312 54.1842 49.4291V54.8376Z" fill="#fbc734"/>
<path d="M67.2701 47.8972H68.2925V55.2446L72.893 47.7952H74.1198V56.3671H73.0975V49.2238L68.7014 56.3671H67.2701V47.8972Z" fill="#fbc734"/>
<path d="M87.8192 47.7952V48.8156H85.6723V56.3671H84.65V48.8156H82.5031V47.7952H87.8192Z" fill="#fbc734"/>
<path d="M101.416 52.5914H97.5314V56.3671H96.5091V47.7952H97.5314V51.6729H101.416V47.7952H102.439V56.3671H101.416V52.5914Z" fill="#fbc734"/>
<path d="M116.649 48.7136H113.071V51.6729H116.547V52.5914H113.071V55.4487H116.649V56.3671H112.049V47.7952H116.649V48.7136Z" fill="#fbc734"/>
<path d="M132.189 49.6322C131.575 49.02 130.655 48.6118 129.735 48.6118C127.588 48.6118 126.361 50.3466 126.361 52.0814C126.361 53.8162 127.486 55.551 129.735 55.551C130.757 55.551 131.78 55.0407 132.393 54.3264L133.109 54.9387C132.291 55.8571 131.064 56.4694 129.735 56.4694C126.873 56.4694 125.339 54.3264 125.339 52.0814C125.339 49.8363 126.873 47.5913 129.735 47.5913C130.962 47.5913 132.086 48.1015 132.802 48.9179L132.189 49.6322Z" fill="#fbc734"/>
<path d="M174.514 47.8972V52.0811L178.296 47.8972H179.523L176.047 51.6729L179.625 56.3671H178.398L175.331 52.2852L174.411 53.2036V56.3671H173.389V47.7952H174.514V47.8972Z" fill="#fbc734"/>
<path d="M189.133 47.8977H193.836V56.4696H192.915V48.7141H190.053L189.951 52.3878C189.951 53.9185 189.848 55.5512 187.804 56.5717L187.395 55.8574C188.928 54.9389 188.928 53.8164 189.031 52.3878L189.133 47.8977Z" fill="#fbc734"/>
<path d="M205.797 52.6934L207.842 47.7952H208.864L205.695 55.2446C205.184 56.2651 204.877 56.3671 203.446 56.3671V55.5507H203.957C204.468 55.5507 204.673 55.3466 204.877 54.9384L205.388 53.8159L202.526 47.8972H203.548L205.797 52.6934Z" fill="#fbc734"/>
<path d="M218.372 51.1627H219.803C223.586 51.1627 223.484 56.3671 219.803 56.3671H217.35V47.7952H221.95V48.6115H218.27V51.1627H218.372ZM218.372 51.9791V55.4487H219.803C222.257 55.4487 222.257 51.9791 219.803 51.9791H218.372Z" fill="#fbc734"/>
<path d="M14.2105 7.38501L0 37.795V38.9175H7.87202L9.71223 35.0397H22.0825L23.9228 39.0195H31.7948V37.897L17.5842 7.38501H14.2105ZM12.2681 28.3046L15.8463 20.1409L19.4245 28.4067L12.2681 28.3046Z" fill="#fbc734"/>
<path d="M51.0147 21.3652L38.7466 7.79297H35.7819L35.6796 39.1213C38.4399 39.1213 41.098 39.1213 43.8583 39.1213V25.243L50.5036 32.1822H51.4237L58.0689 25.243V39.1213C60.8292 39.1213 63.4873 39.1213 66.2476 39.1213L66.3498 7.79297H63.4873L51.0147 21.3652Z" fill="#fbc734"/>
<path d="M84.4453 7.58911L70.337 38.1011V39.2236H78.2091L80.0493 35.3458H92.4196L94.2598 39.3257H102.132V38.2032L88.1258 7.69116L84.4453 7.58911ZM82.6051 28.5087L86.1833 20.345L89.7615 28.6108L82.6051 28.5087Z" fill="#fbc734"/>
<path d="M122.987 22.4879C124.828 21.1613 125.748 18.7122 125.748 16.6713C125.748 12.0792 122.374 7.58911 115.524 7.58911C110.106 7.58911 105.403 10.2423 105.608 15.9569H112.764C112.764 14.8344 113.786 14.1201 115.524 14.1201C119.307 14.1201 119.307 19.5286 115.422 19.5286H113.275V26.0596H115.422C120.738 26.0596 120.738 33.2029 115.422 33.2029C113.071 33.2029 111.537 31.6722 111.537 29.223H104.483C104.483 36.2643 108.572 40.04 115.422 40.04C123.499 40.04 127.486 35.754 127.486 30.2435C127.486 26.6719 126.157 24.1207 122.987 22.4879Z" fill="#fbc734"/>
<path d="M196.494 19.7327H186.884V8.40552C184.123 8.40552 181.363 8.40552 178.705 8.40552L178.603 39.6318C181.261 39.6318 184.021 39.6318 186.781 39.6318V27.0801H196.391V39.6318C199.152 39.6318 201.81 39.6318 204.57 39.6318L204.672 8.40552C201.912 8.40552 199.254 8.40552 196.494 8.40552V19.7327Z" fill="#fbc734"/>
<path d="M236.058 8.50757C233.298 8.50757 230.538 8.50757 227.88 8.50757C227.88 14.3242 228.289 20.345 220.212 20.345H219.599V8.50757C216.838 8.50757 214.18 8.50757 211.42 8.50757L211.318 39.7339C213.976 39.7339 216.634 39.7339 219.496 39.7339V27.7944C220.519 27.7944 221.541 27.7944 222.563 27.5903L229.413 39.7339H238.308V38.5093L229.822 24.733C236.161 20.8552 235.956 14.9365 236.058 8.50757Z" fill="#fbc734"/>
<path d="M258.038 8.20117H254.562L240.454 38.6111V39.7336H248.326L250.166 35.8559H262.537L264.377 39.8357H272.249V38.7132L258.038 8.20117ZM252.722 29.1208L256.3 20.957L259.879 29.2228L252.722 29.1208Z" fill="#fbc734"/>
<path d="M140.776 25.7534C140.776 32.3865 146.194 37.795 152.942 37.795C159.587 37.795 165.006 32.3865 165.006 25.6514C165.006 19.0183 159.587 13.6099 152.84 13.6099C146.092 13.6099 140.674 19.0183 140.776 25.7534ZM164.188 24.733H154.782L159.485 20.0388L164.188 24.733ZM154.884 26.5698H161.53V33.2029L154.884 26.5698ZM153.76 27.7944L158.463 32.4885L153.76 37.1827V27.7944ZM153.658 17.0795H160.303L153.658 23.7125V17.0795ZM152.022 23.5084L147.319 18.8142L152.022 14.1201V23.5084ZM145.377 34.3254L152.022 27.6923V34.3254H145.377ZM141.594 26.5698H150.999L146.297 31.264L141.594 26.5698ZM144.15 18.202L150.795 24.835H144.15V18.202Z" fill="#fbc734"/>
<path d="M171.855 29.937C171.242 27.2838 169.708 27.59 170.117 26.7736C170.526 25.8552 171.242 25.9572 172.571 26.4674C173.9 26.9777 174.002 29.3248 174.002 29.3248C175.842 26.0593 174.207 24.8347 172.775 23.304C171.344 21.7733 168.073 23.304 168.584 21.5692C169.197 19.8344 170.526 21.6713 171.651 21.2631C172.775 20.9569 173.798 20.4467 174.616 18.5078C175.433 16.671 174.002 15.4464 174.002 15.4464C173.491 16.671 172.673 17.1812 171.344 17.3853C170.015 17.5894 167.97 15.7525 166.948 15.6505C165.926 15.5484 165.21 16.5689 165.517 15.6505C165.823 14.7321 165.517 15.1403 166.743 13.9157C167.97 12.6911 169.913 14.4259 169.913 14.4259C169.095 11.5686 166.028 10.6502 164.188 11.0584C162.347 11.3645 161.836 13.8136 160.916 12.7932C159.996 11.8748 160.916 11.2625 161.938 10.6502C162.961 10.0379 163.574 9.73177 162.961 7.3847C162.347 5.03762 159.485 4.73148 159.485 4.73148C159.485 4.73148 160.303 5.95604 159.689 7.1806C159.076 8.40516 156.418 8.40516 155.498 8.7113C154.578 9.01745 154.578 10.5481 154.066 9.83382C153.555 9.11949 153.658 9.22154 154.373 7.07856L155.6 2.89464C155.498 1.36394 152.635 -0.268814 152.737 0.0373261C152.84 0.445513 152.737 0.0373257 153.351 0.955747C153.964 1.87417 153.453 3.50692 152.942 4.52739C152.431 5.6499 149.057 6.87446 149.159 7.99698C149.159 9.11949 149.364 10.8543 148.341 10.7522C147.319 10.6502 147.728 9.73177 147.932 8.20107C148.137 6.67037 146.706 4.83353 144.456 4.83353C142.207 4.83353 141.798 5.6499 141.798 5.6499C141.798 5.6499 144.15 6.36423 143.536 7.99698C142.923 9.62973 141.185 9.83382 141.594 11.5686C142.003 13.3034 141.594 14.63 140.572 12.7932C139.549 10.9563 139.958 11.5686 140.06 10.5481C140.163 9.52768 140.469 9.32359 140.469 9.32359C136.278 10.14 135.664 14.2218 137.607 15.8546C139.549 17.4873 138.527 18.3037 137.402 17.6914C136.278 17.0791 136.789 15.2423 133.722 15.5484C130.655 15.8546 130.348 18.5078 130.348 18.5078C130.348 18.5078 130.553 17.3853 132.291 18.2017C134.131 19.1201 133.313 22.7938 134.642 22.9979C135.971 23.202 136.789 24.7327 134.642 24.6306C132.495 24.5286 131.473 22.4876 131.473 22.4876C131.473 22.4876 130.246 24.2224 131.779 26.5695C133.313 28.9166 135.46 27.692 136.38 28.7125C137.3 29.7329 136.482 30.0391 136.073 30.1411C135.664 30.1411 133.109 29.1207 131.371 31.2637C129.53 33.3046 131.064 35.6517 131.064 35.6517C131.064 35.6517 132.495 34.223 134.029 33.7128C135.562 33.2025 137.096 35.8558 137.811 35.6517C138.527 35.5496 140.878 35.2435 139.447 36.7742C137.914 38.3049 135.153 37.3865 135.153 37.3865C137.914 41.7745 141.798 41.0601 143.127 39.4274C144.559 37.7946 146.194 39.2233 144.15 40.5499C142.207 41.7745 141.594 43.7134 142.31 45.2441C143.025 46.8768 145.377 47.5911 145.377 47.5911C145.274 45.9584 145.479 44.8359 146.399 43.8154C147.319 42.7949 149.773 44.0195 150.897 42.2847C152.124 40.652 152.329 41.4683 151.817 43.4072C151.306 45.2441 149.364 45.8563 149.364 45.8563C154.884 46.6727 156.622 43.9175 156.418 42.6929C156.213 41.4683 156.725 39.0192 157.849 40.652C158.871 42.2847 157.849 43.6113 159.076 45.4482C160.405 47.387 163.574 45.8563 163.574 45.8563C160.814 43.9175 163.063 41.7745 163.779 40.5499C164.597 39.3253 163.983 38.611 164.085 37.7946C164.188 36.9783 164.903 38.1008 165.619 39.0192C166.335 39.9376 165.21 42.5908 165.21 42.5908C165.21 42.5908 169.299 40.1417 168.993 37.5906C168.686 35.0394 167.561 34.6312 166.948 33.9169C166.335 33.2025 166.948 31.0596 167.868 32.6923C168.788 34.3251 170.935 35.6517 172.98 35.4476C174.922 35.2435 175.229 32.5903 175.229 32.5903C173.593 34.0189 172.469 32.4882 171.855 29.937ZM152.84 39.4274C145.172 39.4274 139.038 33.2025 139.038 25.549C139.038 17.8955 145.274 11.7727 152.942 11.7727C160.609 11.7727 166.743 17.9976 166.743 25.6511C166.641 33.3046 160.507 39.5294 152.84 39.4274Z" fill="#fbc734"/>
</svg>
