<?xml version="1.0" encoding="UTF-8"?>
<svg xmlns="http://www.w3.org/2000/svg" xmlns:xlink="http://www.w3.org/1999/xlink" width="18pt" height="18pt" viewBox="0 0 18 18" version="1.1">
<g id="surface1">
<path style=" stroke:none;fill-rule:nonzero;fill:rgb(0%,0%,0%);fill-opacity:1;" d="M 17.710938 8.300781 L 11.210938 1.800781 C 11.027344 1.613281 10.777344 1.511719 10.515625 1.511719 C 10.25 1.511719 10.003906 1.613281 9.820312 1.800781 L 9.226562 2.390625 C 9.042969 2.574219 8.941406 2.824219 8.941406 3.085938 C 8.941406 3.351562 9.042969 3.605469 9.226562 3.792969 L 13.019531 7.59375 L 0.972656 7.59375 C 0.429688 7.59375 0 8.019531 0 8.5625 L 0 9.394531 C 0 9.9375 0.429688 10.40625 0.972656 10.40625 L 13.0625 10.40625 L 9.226562 14.230469 C 9.042969 14.414062 8.941406 14.65625 8.941406 14.917969 C 8.941406 15.183594 9.042969 15.425781 9.226562 15.613281 L 9.820312 16.199219 C 10.003906 16.386719 10.25 16.488281 10.515625 16.488281 C 10.777344 16.488281 11.027344 16.386719 11.210938 16.199219 L 17.710938 9.699219 C 17.898438 9.511719 18 9.265625 18 9 C 18 8.734375 17.898438 8.488281 17.710938 8.300781 Z M 17.710938 8.300781 "/>
</g>
</svg>
